<svg xmlns="http://www.w3.org/2000/svg" xmlns:xlink="http://www.w3.org/1999/xlink" viewBox="0 0 1484 1050">  <style>    svg { font : caption; }      .idvc2_chart_axis { fill: none; stroke: gray; stroke-width: 1; vector-effect: non-scaling-stroke; shape-rendering: crispEdges; }      .idvc2_chart_axis_text { fill: #333; font-size: 95%; stroke: none; stroke-width: 1; vector-effect: non-scaling-stroke; }      .idvc2_chart_roofline_text { fill: gray; font-size: 90%; }      .idvc2_chart_roofline_text.selected { fill: #000; }      .idvc2_chart_roofline_text.hidden { fill: none; }      .idvc2_chart_roofline_explanation { fill: none; }      .idvc2_chart_roofline_center_marker { stroke: #000; stroke-width: 1 }      .roofline_child_line { stroke: none; fill: none; }      .roofline_parent_line { stroke: none; fill: none; }      .roofline_child_arrow { stroke: none; fill: none; }      .roofline_parent_arrow { stroke: none; fill: none; }      .roofline_loop { stroke: #000; stroke-width: 1; vector-effect: non-scaling-stroke; shape-rendering: geometricPrecision; fill: lightgray; }      .roofline_loop.no_loop_position { stroke: darkgray; fill: #eee; }      .roofline_loop.loop_inactive_result { opacity: 0.4; }      .idvc2_roofline_line { stroke: #999; stroke-dasharray: 4,4; fill: none; stroke-width: 1; vector-effect: non-scaling-stroke; shape-rendering: crispEdges; }      .idvc2_roofline_grid_line { stroke: #ddd; fill: none; stroke-width: 1; vector-effect: non-scaling-stroke; shape-rendering: crispEdges; }      .idvc2_roofline_line.selected { stroke: #000; shape-rendering: auto; stroke-dasharray: none; }      .idvc2_roofline_line_hotarea { stroke: none; fill: none; }      .roofline_roofs_cross { stroke: none; fill: none; }      .roofline_coord_line { stroke: none; fill: none; stroke-width: 1; vector-effect: non-scaling-stroke; shape-rendering: crispEdges; }      .roofline_coord_line.selected { stroke: gray; stroke-dasharray: none !important; }      .roofline_expander { stroke: none; fill: none; }      .roofline_expander_vert_line { stroke: none; fill: none; }      .roofline_expander_horz_line { stroke: none; fill: none; }      .idvc2_roofline_roof_crossing { stroke: none; fill: none; }      .idvc2_roofline_roof_crossing_line { stroke: none; fill: none; }      .idvc2_roofline_roof_crossing_label { stroke: none; fill: none; }      .idvc2_roofline_loops_matching_line { stroke: black; stroke-dasharray: 4,4; fill: none; vector-effect: non-scaling-stroke; shape-rendering: crispEdges; }      .idvc2_roofline_loops_matching_arrow { stroke: #000; fill: black; vector-effect: non-scaling-stroke; shape-rendering: geometricPrecision; }      .idvc2_roofline_loops_matching_label { font-size: 100%; }      .idvc2_roofline_total_value_tick_active { stroke: none; fill: none; }      .idvc2_roofline_total_value_tick { stroke: none; fill: none; }      .stairs_delta_line {stroke-width: 2;vector-effect: non-scaling-stroke;shape-rendering: geometricPrecision;}      .stairs_connection_line {stroke: black;stroke-width: 1;stroke-dasharray: 2,2;vector-effect: non-scaling-stroke;shape-rendering: geometricPrecision;}      .stairs_delta_ends {stroke-width: 3;vector-effect: non-scaling-stroke;shape-rendering: geometricPrecision;}      .dumbbell_line {stroke: #2D3741;stroke-width: 1.5;fill: none;vector-effect: non-scaling-stroke;shape-rendering: geometricPrecision;}      .zone_text_root {position: relative; overflow: visible;}       .zone_text_container {position: absolute; left: 0; bottom: 0; right: 0; text-align: center; overflow-wrap: break-word; word-wrap: break-word; hyphens: auto; color: rgb(160, 0, 0); background: transparent; opacity: 0.6;}      .zone_text_caption {min-width: 0; pointer-events: none;}      .zone_text_explanation {font-size: 800vertical-align: super;}      .idvc2_hidden { stroke: none !important; fill: none !important; }  </style>  <g>    <svg id="vert_axis" viewBox="0 0 70 1022" width="70" height="1022">      <line x1="69.45629119873047" y1="0" x2="69.45629119873047" y2="1022.0101318359375" class="idvc2_chart_axis"></line><line x1="63.95629119873047" y1="884" x2="69.95629119873047" y2="884" class="idvc2_chart_axis"></line><line x1="63.95629119873047" y1="884" x2="69.95629119873047" y2="884" class="idvc2_chart_axis_hot"></line><text x="59.95629119873047" y="884" class="idvc2_chart_axis_text" style="text-anchor: end;dominant-baseline: middle">1</text><line x1="63.95629119873047" y1="632" x2="69.95629119873047" y2="632" class="idvc2_chart_axis"></line><line x1="63.95629119873047" y1="632" x2="69.95629119873047" y2="632" class="idvc2_chart_axis_hot"></line><text x="59.95629119873047" y="632" class="idvc2_chart_axis_text" style="text-anchor: end;dominant-baseline: middle">10</text><line x1="63.95629119873047" y1="379" x2="69.95629119873047" y2="379" class="idvc2_chart_axis"></line><line x1="63.95629119873047" y1="379" x2="69.95629119873047" y2="379" class="idvc2_chart_axis_hot"></line><text x="59.95629119873047" y="379" class="idvc2_chart_axis_text" style="text-anchor: end;dominant-baseline: middle">100</text><line x1="63.95629119873047" y1="127" x2="69.95629119873047" y2="127" class="idvc2_chart_axis"></line><line x1="63.95629119873047" y1="127" x2="69.95629119873047" y2="127" class="idvc2_chart_axis_hot"></line><text x="59.95629119873047" y="127" class="idvc2_chart_axis_text" style="text-anchor: end;dominant-baseline: middle">1000</text><defs><marker id="SVG_1_TotalValue" markerWidth="6" markerHeight="10" refX="1" refY="5" orient="auto" markerUnits="userSpaceOnUse"><path d="M 0 0 L 0 10 L 6 5 L 0 0" class="idvc2_roofline_total_value_tick"></path></marker><marker id="SVG_1_TotalValueActive" markerWidth="6" markerHeight="10" refX="1" refY="5" orient="auto" markerUnits="userSpaceOnUse"><path d="M 0 0 L 0 10 L 6 5 L 0 0" class="idvc2_roofline_total_value_tick_active"></path></marker></defs><line x1="63.95629119873047" y1="263" x2="69.95629119873047" y2="263" class="idvc2_chart_axis idvc2_active" style="stroke: transparent; stroke-width:10; marker-start:url(#SVG_1_TotalValue)" ></line><line x1="63.95629119873047" y1="263" x2="69.95629119873047" y2="263" class="idvc2_chart_axis_hot"></line><text x="59.95629119873047" y="263" class="" style="text-anchor: end;dominant-baseline: middle" fill="none">290.26</text>    </svg>  </g>  <g transform="translate(70, 1022)">    <svg id="horz_axis" viewBox="0 0 1414 28" width="1414" height="28">      <line x1="0" y1="0.5" x2="1413.6343994140625" y2="0.5" class="idvc2_chart_axis"></line><line x1="2" y1="6" x2="2" y2="0" class="idvc2_chart_axis"></line><line x1="2" y1="6" x2="2" y2="0" class="idvc2_chart_axis_hot"></line><text x="12.9375" y="10" class="idvc2_chart_axis_text" style="text-anchor: middle; dominant-baseline:text-before-edge;"> 0.01 </text><line x1="233" y1="6" x2="233" y2="0" class="idvc2_chart_axis"></line><line x1="233" y1="6" x2="233" y2="0" class="idvc2_chart_axis_hot"></line><text x="233" y="10" class="idvc2_chart_axis_text" style="text-anchor: middle; dominant-baseline:text-before-edge;"> 0.04 </text><line x1="326" y1="6" x2="326" y2="0" class="idvc2_chart_axis"></line><line x1="326" y1="6" x2="326" y2="0" class="idvc2_chart_axis_hot"></line><text x="326" y="10" class="idvc2_chart_axis_text" style="text-anchor: middle; dominant-baseline:text-before-edge;"> 0.07 </text><line x1="386" y1="6" x2="386" y2="0" class="idvc2_chart_axis"></line><line x1="386" y1="6" x2="386" y2="0" class="idvc2_chart_axis_hot"></line><text x="386" y="10" class="idvc2_chart_axis_text" style="text-anchor: middle; dominant-baseline:text-before-edge;"> 0.1 </text><line x1="617" y1="6" x2="617" y2="0" class="idvc2_chart_axis"></line><line x1="617" y1="6" x2="617" y2="0" class="idvc2_chart_axis_hot"></line><text x="617" y="10" class="idvc2_chart_axis_text" style="text-anchor: middle; dominant-baseline:text-before-edge;"> 0.4 </text><line x1="710" y1="6" x2="710" y2="0" class="idvc2_chart_axis"></line><line x1="710" y1="6" x2="710" y2="0" class="idvc2_chart_axis_hot"></line><text x="710" y="10" class="idvc2_chart_axis_text" style="text-anchor: middle; dominant-baseline:text-before-edge;"> 0.7 </text><line x1="770" y1="6" x2="770" y2="0" class="idvc2_chart_axis"></line><line x1="770" y1="6" x2="770" y2="0" class="idvc2_chart_axis_hot"></line><text x="770" y="10" class="idvc2_chart_axis_text" style="text-anchor: middle; dominant-baseline:text-before-edge;"> 1 </text><line x1="1001" y1="6" x2="1001" y2="0" class="idvc2_chart_axis"></line><line x1="1001" y1="6" x2="1001" y2="0" class="idvc2_chart_axis_hot"></line><text x="1001" y="10" class="idvc2_chart_axis_text" style="text-anchor: middle; dominant-baseline:text-before-edge;"> 4 </text><line x1="1094" y1="6" x2="1094" y2="0" class="idvc2_chart_axis"></line><line x1="1094" y1="6" x2="1094" y2="0" class="idvc2_chart_axis_hot"></line><text x="1094" y="10" class="idvc2_chart_axis_text" style="text-anchor: middle; dominant-baseline:text-before-edge;"> 7 </text><line x1="1154" y1="6" x2="1154" y2="0" class="idvc2_chart_axis"></line><line x1="1154" y1="6" x2="1154" y2="0" class="idvc2_chart_axis_hot"></line><text x="1154" y="10" class="idvc2_chart_axis_text" style="text-anchor: middle; dominant-baseline:text-before-edge;"> 10 </text><line x1="1385" y1="6" x2="1385" y2="0" class="idvc2_chart_axis"></line><line x1="1385" y1="6" x2="1385" y2="0" class="idvc2_chart_axis_hot"></line><text x="1385" y="10" class="idvc2_chart_axis_text" style="text-anchor: middle; dominant-baseline:text-before-edge;"> 40 </text><defs><marker id="SVG_2_TotalValue" markerWidth="6" markerHeight="10" refX="1" refY="5" orient="auto" markerUnits="userSpaceOnUse"><path d="M 0 0 L 0 10 L 6 5 L 0 0" class="idvc2_roofline_total_value_tick"></path></marker><marker id="SVG_2_TotalValueActive" markerWidth="6" markerHeight="10" refX="1" refY="5" orient="auto" markerUnits="userSpaceOnUse"><path d="M 0 0 L 0 10 L 6 5 L 0 0" class="idvc2_roofline_total_value_tick_active"></path></marker></defs><line x1="495" y1="6" x2="495" y2="0" class="idvc2_chart_axis idvc2_active" style="stroke: transparent; stroke-width:10; marker-start:url(#SVG_2_TotalValue)" ></line><line x1="495" y1="6" x2="495" y2="0" class="idvc2_chart_axis_hot"></line><text x="495" y="10" class="" style="text-anchor: middle; dominant-baseline:text-before-edge;" fill="none"> 0.19 </text>    </svg>  </g>  <g transform="translate(70, 0)">    <svg id="roofline_content" viewBox="0 0 1414 1022" width="1414" height="1022">      <g id="SVG_0_BackgroundLayer"><polygon fill="rgb(160, 30, 30)" style="opacity:0.14" points="1178,1022 1178,163 1414,163 1414,1022"></polygon><polygon fill="rgb(200, 40, 40)" style="opacity:0.1" points="118,1022 118,357 414,163 1178,163 1178,1022"></polygon><polygon fill="rgb(240, 50, 50)" style="opacity:0.06" points="0,1022 0,435 118,357 118,1022"></polygon><line class="idvc2_roofline_grid_line" x1="1385" y1="1022" x2="1385" y2="0"></line><line class="idvc2_roofline_grid_line" x1="1154" y1="1022" x2="1154" y2="0"></line><line class="idvc2_roofline_grid_line" x1="1094" y1="1022" x2="1094" y2="0"></line><line class="idvc2_roofline_grid_line" x1="1001" y1="1022" x2="1001" y2="0"></line><line class="idvc2_roofline_grid_line" x1="770" y1="1022" x2="770" y2="0"></line><line class="idvc2_roofline_grid_line" x1="710" y1="1022" x2="710" y2="0"></line><line class="idvc2_roofline_grid_line" x1="617" y1="1022" x2="617" y2="0"></line><line class="idvc2_roofline_total_line" x1="495" y1="1022" x2="495" y2="0"></line><line class="idvc2_roofline_grid_line" x1="386" y1="1022" x2="386" y2="0"></line><line class="idvc2_roofline_grid_line" x1="326" y1="1022" x2="326" y2="0"></line><line class="idvc2_roofline_grid_line" x1="233" y1="1022" x2="233" y2="0"></line><line class="idvc2_roofline_grid_line" x1="2" y1="1022" x2="2" y2="0"></line><line class="idvc2_roofline_grid_line" x1="0" y1="884" x2="1414" y2="884"></line><line class="idvc2_roofline_grid_line" x1="0" y1="632" x2="1414" y2="632"></line><line class="idvc2_roofline_grid_line" x1="0" y1="379" x2="1414" y2="379"></line><line class="idvc2_roofline_total_line" x1="0" y1="263" x2="1414" y2="263"></line><line class="idvc2_roofline_grid_line" x1="0" y1="127" x2="1414" y2="127"></line><foreignObject class="zone_text_root idvc2_active" x="4.01052" y="985.95792" width="109.97896" height="20"><body xmlns="http://www.w3.org/1999/xhtml" class="zone_text_container"><div class="zone_text_container"><span class="zone_text_caption">Memory bound</span></div></body></foreignObject><foreignObject class="zone_text_root idvc2_active" x="122.01052" y="985.95792" width="1051.97896" height="20"><body xmlns="http://www.w3.org/1999/xhtml" class="zone_text_container"><div class="zone_text_container"><span class="zone_text_caption">Bound by compute and memory roofs</span></div></body></foreignObject><foreignObject class="zone_text_root idvc2_active" x="1182.01052" y="985.95792" width="227.97896" height="20"><body xmlns="http://www.w3.org/1999/xhtml" class="zone_text_container"><div class="zone_text_container"><span class="zone_text_caption">Compute bound</span></div></body></foreignObject><line class="idvc2_roofline_line_hotarea idvc2_active" x1="0" y1="435" x2="532" y2="85"></line><line class="idvc2_roofline_line_hotarea idvc2_active" x1="0" y1="527" x2="672" y2="85"></line><line class="idvc2_roofline_line_hotarea idvc2_active" x1="0" y1="624" x2="819" y2="85"></line><line class="idvc2_roofline_line_hotarea idvc2_active" x1="0" y1="937" x2="1296" y2="85"></line><line class="idvc2_roofline_line_hotarea idvc2_active" x1="532" y1="85" x2="1414" y2="85"></line><line class="idvc2_roofline_line_hotarea idvc2_active" x1="419" y1="160" x2="1414" y2="160"></line><line class="idvc2_roofline_line_hotarea idvc2_active" x1="414" y1="163" x2="1414" y2="163"></line><line class="idvc2_roofline_line_hotarea idvc2_active" x1="303" y1="236" x2="1414" y2="236"></line><line class="idvc2_roofline_line_hotarea idvc2_active" x1="118" y1="357" x2="1414" y2="357"></line></g><g id="SVG_0_LoopsLayer"><rect class="roofline_loop idvc2_active" x="350" y="397" width="10" height="10" style="fill:yellow !important" ></rect><polygon class="roofline_loop idvc2_active" points="711.2258105032912,190.22048120622486 722,171.55903758755028 732.7741894967088,190.22048120622486" style="fill:red !important" ></polygon><polygon class="roofline_loop idvc2_active" points="664.9193578774684,240.66536090466863 673,226.6692781906627 681.0806421225316,240.66536090466863" style="fill:yellow !important" ></polygon><polygon class="roofline_loop idvc2_active" points="664.9193578774684,237.66536090466863 673,223.6692781906627 681.0806421225316,237.66536090466863" style="fill:yellow !important" ></polygon><polygon class="roofline_loop idvc2_active" points="581.6129052516457,365.1102406031124 587,355.77951879377514 592.3870947483543,365.1102406031124" style="fill:green !important" ></polygon><polygon class="roofline_loop idvc2_active" points="716.6129052516457,338.1102406031124 722,328.77951879377514 727.3870947483543,338.1102406031124" style="fill:green !important" ></polygon><polygon class="roofline_loop idvc2_active" points="716.6129052516457,338.1102406031124 722,328.77951879377514 727.3870947483543,338.1102406031124" style="fill:green !important" ></polygon><polygon class="roofline_loop idvc2_active" points="420.6129052516456,734.1102406031124 426,724.7795187937752 431.3870947483544,734.1102406031124" style="fill:green !important" ></polygon><rect class="roofline_loop idvc2_active" x="387" y="378" width="14" height="14" style="fill:red !important" ></rect><circle class="roofline_loop idvc2_active" cx="501" cy="370" r="8" style="fill:red !important" ></circle><circle class="roofline_loop idvc2_active" cx="501" cy="287" r="8" style="fill:red !important" ></circle><polygon class="roofline_loop idvc2_active idvc2_roofline_point_selected idvc2_roofline_point_current" points="711.2258105032912,189.22048120622486 722,170.55903758755028 732.7741894967088,189.22048120622486" style="fill:red !important" ></polygon></g><g id="SVG_0_RoofsLayer"><rect x="114.99211" y="353.99211" width="6.0157799999999995" height="6.0157799999999995" class="roofline_roofs_cross idvc2_active"></rect><line x1="118" y1="360.00789" x2="118" y2="1022" class="roofline_coord_line"></line><rect x="254.99211" y="353.99211" width="6.0157799999999995" height="6.0157799999999995" class="roofline_roofs_cross idvc2_active"></rect><line x1="258" y1="360.00789" x2="258" y2="1022" class="roofline_coord_line"></line><rect x="401.99211" y="353.99211" width="6.0157799999999995" height="6.0157799999999995" class="roofline_roofs_cross idvc2_active"></rect><line x1="405" y1="360.00789" x2="405" y2="1022" class="roofline_coord_line"></line><rect x="878.99211" y="353.99211" width="6.0157799999999995" height="6.0157799999999995" class="roofline_roofs_cross idvc2_active"></rect><line x1="882" y1="360.00789" x2="882" y2="1022" class="roofline_coord_line"></line><rect x="299.99211" y="232.99211" width="6.0157799999999995" height="6.0157799999999995" class="roofline_roofs_cross idvc2_active"></rect><line x1="303" y1="239.00789" x2="303" y2="1022" class="roofline_coord_line"></line><rect x="440.99211" y="232.99211" width="6.0157799999999995" height="6.0157799999999995" class="roofline_roofs_cross idvc2_active"></rect><line x1="444" y1="239.00789" x2="444" y2="1022" class="roofline_coord_line"></line><rect x="586.99211" y="232.99211" width="6.0157799999999995" height="6.0157799999999995" class="roofline_roofs_cross idvc2_active"></rect><line x1="590" y1="239.00789" x2="590" y2="1022" class="roofline_coord_line"></line><rect x="1063.99211" y="232.99211" width="6.0157799999999995" height="6.0157799999999995" class="roofline_roofs_cross idvc2_active"></rect><line x1="1067" y1="239.00789" x2="1067" y2="1022" class="roofline_coord_line"></line><rect x="410.99211" y="159.99211" width="6.0157799999999995" height="6.0157799999999995" class="roofline_roofs_cross idvc2_active"></rect><line x1="414" y1="166.00789" x2="414" y2="1022" class="roofline_coord_line"></line><rect x="551.99211" y="159.99211" width="6.0157799999999995" height="6.0157799999999995" class="roofline_roofs_cross idvc2_active"></rect><line x1="555" y1="166.00789" x2="555" y2="1022" class="roofline_coord_line"></line><rect x="698.99211" y="159.99211" width="6.0157799999999995" height="6.0157799999999995" class="roofline_roofs_cross idvc2_active"></rect><line x1="702" y1="166.00789" x2="702" y2="1022" class="roofline_coord_line"></line><rect x="1174.99211" y="159.99211" width="6.0157799999999995" height="6.0157799999999995" class="roofline_roofs_cross idvc2_active"></rect><line x1="1178" y1="166.00789" x2="1178" y2="1022" class="roofline_coord_line"></line><rect x="415.99211" y="156.99211" width="6.0157799999999995" height="6.0157799999999995" class="roofline_roofs_cross idvc2_active"></rect><line x1="419" y1="163.00789" x2="419" y2="1022" class="roofline_coord_line"></line><rect x="555.99211" y="156.99211" width="6.0157799999999995" height="6.0157799999999995" class="roofline_roofs_cross idvc2_active"></rect><line x1="559" y1="163.00789" x2="559" y2="1022" class="roofline_coord_line"></line><rect x="702.99211" y="156.99211" width="6.0157799999999995" height="6.0157799999999995" class="roofline_roofs_cross idvc2_active"></rect><line x1="706" y1="163.00789" x2="706" y2="1022" class="roofline_coord_line"></line><rect x="1178.99211" y="156.99211" width="6.0157799999999995" height="6.0157799999999995" class="roofline_roofs_cross idvc2_active"></rect><line x1="1182" y1="163.00789" x2="1182" y2="1022" class="roofline_coord_line"></line><rect x="528.99211" y="81.99211" width="6.0157799999999995" height="6.0157799999999995" class="roofline_roofs_cross idvc2_active"></rect><line x1="532" y1="88.00789" x2="532" y2="1022" class="roofline_coord_line"></line><rect x="668.99211" y="81.99211" width="6.0157799999999995" height="6.0157799999999995" class="roofline_roofs_cross idvc2_active"></rect><line x1="672" y1="88.00789" x2="672" y2="1022" class="roofline_coord_line"></line><rect x="815.99211" y="81.99211" width="6.0157799999999995" height="6.0157799999999995" class="roofline_roofs_cross idvc2_active"></rect><line x1="819" y1="88.00789" x2="819" y2="1022" class="roofline_coord_line"></line><rect x="1292.99211" y="81.99211" width="6.0157799999999995" height="6.0157799999999995" class="roofline_roofs_cross idvc2_active"></rect><line x1="1296" y1="88.00789" x2="1296" y2="1022" class="roofline_coord_line"></line><line class="idvc2_roofline_line L2Bandwidth" x1="0" y1="527" x2="672" y2="85" style=""></line><line class="idvc2_roofline_line SPVectorAddPeak" x1="419" y1="160" x2="1414" y2="160"></line><line class="idvc2_roofline_line L1Bandwidth" x1="0" y1="435" x2="532" y2="85" style=""></line><line class="idvc2_roofline_line selected" x1="0" y1="435" x2="414" y2="163" style=""></line><line class="idvc2_roofline_line SPVectorFMAPeak" x1="532" y1="85" x2="1414" y2="85"></line><line class="idvc2_roofline_line L3Bandwidth" x1="0" y1="624" x2="819" y2="85" style=""></line><line class="idvc2_roofline_line ScalarAddPeak" x1="118" y1="357" x2="1414" y2="357"></line><line class="idvc2_roofline_line DPVectorFMAPeak selected" x1="414" y1="163" x2="1414" y2="163"></line><line class="idvc2_roofline_line DRAMBandwidth" x1="0" y1="937" x2="1296" y2="85" style=""></line><line class="idvc2_roofline_line selected" x1="0" y1="937" x2="1178" y2="163" style=""></line><line class="idvc2_roofline_line DPVectorAddPeak" x1="303" y1="236" x2="1414" y2="236"></line></g><g id="SVG_0_RoofsTextLayer"><text class="idvc2_chart_roofline_text" x="0" y="0" style="dominant-baseline:text-after-edge;" transform="matrix(0.835477 -0.549525 0.549525 0.835477 10.4816 518.909)">L2 Bandwidth: 2624.98 GB/sec</text><text class="idvc2_chart_roofline_text selected" x="0" y="0" style="dominant-baseline:text-after-edge;" transform="matrix(0.835417 -0.549616 0.549616 0.835417 10.4803 426.908)">L1 Bandwidth: 6095.46 GB/sec</text><text class="idvc2_chart_roofline_text" x="0" y="0" style="text-anchor: end; dominant-baseline:text-after-edge;" transform="matrix(1 0 0 1 1409.99 84)">SP Vector FMA Peak: 1465.21 GFLOPS</text><text class="idvc2_chart_roofline_text" x="0" y="0" style="dominant-baseline:text-after-edge;" transform="matrix(0.835331 -0.549748 0.549748 0.835331 10.4724 615.911)">L3 Bandwidth: 1086.85 GB/sec</text><text class="idvc2_chart_roofline_text" x="0" y="0" style="text-anchor: end; dominant-baseline:text-after-edge;" transform="matrix(1 0 0 1 1409.99 356)">Scalar Add Peak: 122.08 GFLOPS</text><text class="idvc2_chart_roofline_text selected" x="0" y="0" style="text-anchor: end; dominant-baseline:text-after-edge;" transform="matrix(1 0 0 1 1409.99 162)">DP Vector FMA Peak: 722.98 GFLOPS</text><text class="idvc2_chart_roofline_text selected" x="0" y="0" style="dominant-baseline:text-after-edge;" transform="matrix(0.835604 -0.549332 0.549332 0.835604 10.4423 928.938)">DRAM Bandwidth: 62.4 GB/sec</text><text class="idvc2_chart_roofline_text" x="0" y="0" style="text-anchor: end; dominant-baseline:text-after-edge;" transform="matrix(1 0 0 1 1409.99 235)">DP Vector Add Peak: 370.94 GFLOPS</text></g><g id="SVG_0_ForegroundLayer"><line x1="475" y1="263" x2="515" y2="263" class="idvc2_chart_roofline_center_marker"></line><line x1="495" y1="243" x2="495" y2="283" class="idvc2_chart_roofline_center_marker"></line><use xlink:href="#SVG_0_expanderTemplate" class="roofline_expander idvc2_active" x="-118.269725" y="-105.51315"></use><text class="idvc2_roofline_roof_crossing_label" x="-100" y="-100" filter="url(#SVG_0_TextBackground)" style="text-anchor:end; dominant-baseline: middle;"><tspan class="idvc2_roofline_roof_crossing_label_value">641.63</tspan><tspan class="idvc2_roofline_roof_crossing_label_measure"> GFLOPS </tspan><tspan class="idvc2_roofline_roof_crossing_label_gain_x">(</tspan><tspan class="idvc2_roofline_roof_crossing_label_gain">6.7</tspan><tspan class="idvc2_roofline_roof_crossing_label_gain_x">x)</tspan></text><text class="idvc2_roofline_roof_crossing_label" x="-100" y="-100" filter="url(#SVG_0_TextBackground)" style="text-anchor:end; dominant-baseline: middle;"><tspan class="idvc2_roofline_roof_crossing_label_value">114.41</tspan><tspan class="idvc2_roofline_roof_crossing_label_measure"> GFLOPS </tspan><tspan class="idvc2_roofline_roof_crossing_label_gain_x">(</tspan><tspan class="idvc2_roofline_roof_crossing_label_gain">1.2</tspan><tspan class="idvc2_roofline_roof_crossing_label_gain_x">x)</tspan></text><use xlink:href="#SVG_0_crossingTemplate" class="idvc2_roofline_roof_crossing" x="-100" y="-100"></use><use xlink:href="#SVG_0_crossingTemplate" class="idvc2_roofline_roof_crossing" x="-100" y="-100"></use><line x1="-100" y1="0" x2="-100" y2="0" class="idvc2_roofline_roof_crossing_line"></line></g><rect x="0" y="0" width="0" height="0" class="idvc2_chart_selection"></rect><defs><filter id="SVG_0_TextBackground" x="0" y="0" width="1" height="1"><feFlood flood-color="white"></feFlood><feComposite in="SourceGraphic"></feComposite></filter></defs><defs id="SVG_0_line_arrows"><marker id="SVG_0_loops_matching_arrow" markerWidth="9.02367" markerHeight="9.02367" refX="9.02367" refY="5" orient="auto"><path d="M 1.00263 1.00263 L 1.00263 8.02104 L 8.02104 5 L 1.00263 1.00263" class="idvc2_roofline_loops_matching_arrow"></path></marker><marker id="SVG_0_ChildArrow" markerWidth="9.02367" markerHeight="9.02367" refX="9.02367" refY="5" orient="auto"><path d="M 1.00263 1.00263 L 1.00263 8.02104 L 8.02104 5 L 1.00263 1.00263" class="roofline_child_arrow"></path></marker><marker id="SVG_0_ParentArrow" markerWidth="9.02367" markerHeight="9.02367" refX="0" refY="5" orient="auto"><path d="M 1.00263 1.00263 L 1.00263 8.02104 L 8.02104 5 L 1.00263 1.00263" class="roofline_parent_arrow"></path></marker></defs><defs id="SVG_0_fill_patterns"><pattern id="SVG_0_loopFill-6-4-cl" patternContentUnits="objectBoundingBox" width="100%" height="100%"><circle cx=".5" cy=".5" r=".5" fill="white"></circle><circle cx=".5" cy=".5" r="0.3333333333333333" fill="green" stroke="black" stroke-width="0.05"></circle></pattern><pattern id="SVG_0_loopFill-8-4-cl" patternContentUnits="objectBoundingBox" width="100%" height="100%"><circle cx=".5" cy=".5" r=".5" fill="white"></circle><circle cx=".5" cy=".5" r="0.25" fill="green" stroke="black" stroke-width="0.05"></circle></pattern><pattern id="SVG_0_loopFill-8-6-cl" patternContentUnits="objectBoundingBox" width="100%" height="100%"><circle cx=".5" cy=".5" r=".5" fill="white"></circle><circle cx=".5" cy=".5" r="0.375" fill="yellow" stroke="black" stroke-width="0.05"></circle></pattern><pattern id="SVG_0_loopFill-6-4-sr" patternContentUnits="objectBoundingBox" width="100%" height="100%"><rect x="0" y="0" width="1" height="1" fill="white"></rect><rect x="0.16666666666666669" y="0.16666666666666669" width="0.6666666666666666" height="0.6666666666666666" fill="green" stroke="black" stroke-width="0.05"></rect></pattern><pattern id="SVG_0_loopFill-8-4-sr" patternContentUnits="objectBoundingBox" width="100%" height="100%"><rect x="0" y="0" width="1" height="1" fill="white"></rect><rect x="0.25" y="0.25" width="0.5" height="0.5" fill="green" stroke="black" stroke-width="0.05"></rect></pattern><pattern id="SVG_0_loopFill-8-6-sr" patternContentUnits="objectBoundingBox" width="100%" height="100%"><rect x="0" y="0" width="1" height="1" fill="white"></rect><rect x="0.125" y="0.125" width="0.75" height="0.75" fill="yellow" stroke="black" stroke-width="0.05"></rect></pattern><pattern id="SVG_0_loopFill-6-4-tr" patternContentUnits="objectBoundingBox" width="100%" height="100%"><polygon points="0,1.0003333333333333 0.5,0.00033333333333340764 1,1.0003333333333333" fill="white"></polygon><polygon points="0.16666666666666669,0.8892222222222222 0.5,0.22255555555555562 0.8333333333333333,0.8892222222222222" fill="green" stroke="black" stroke-width="0.05"></polygon></pattern><pattern id="SVG_0_loopFill-8-4-tr" patternContentUnits="objectBoundingBox" width="100%" height="100%"><polygon points="0,1.0003333333333333 0.5,0.00033333333333340764 1,1.0003333333333333" fill="white"></polygon><polygon points="0.25,0.8336666666666667 0.5,0.3336666666666667 0.75,0.8336666666666667" fill="green" stroke="black" stroke-width="0.05"></polygon></pattern><pattern id="SVG_0_loopFill-8-6-tr" patternContentUnits="objectBoundingBox" width="100%" height="100%"><polygon points="0,1.0003333333333333 0.5,0.00033333333333340764 1,1.0003333333333333" fill="white"></polygon><polygon points="0.125,0.917 0.5,0.16700000000000004 0.875,0.917" fill="yellow" stroke="black" stroke-width="0.05"></polygon></pattern></defs><defs><g id="SVG_0_expanderTemplate"><rect x="0" y="0" width="11.026299999999999" height="11.026299999999999" class=""></rect><line x1="2.00526" y1="5.5131499999999996" x2="9.02104" y2="5.5131499999999996" class="roofline_expander_horz_line"></line><line x1="5.5131499999999996" y1="2.00526" x2="5.5131499999999996" y2="9.02104" class="roofline_expander_vert_line"></line></g></defs><defs><line id="SVG_0_crossingTemplate" x1="-4" y1="-4" x2="4" y2="4"></line></defs><text x="2" y="2" style="font-size: 90%; writing-mode: tb; dominant-baseline: text-after-edge">GFLOPS</text><text x="1410" y="1020" style="font-size: 90%; text-anchor: end; dominant-baseline: text-after-edge"><tspan>FLOP/Byte</tspan><tspan style="font-size: 90%;"> (Arithmetic Intensity)</tspan></text>    </svg>  </g>  </svg>